<svg width="162" height="161" viewBox="0 0 162 161" fill="none" xmlns="http://www.w3.org/2000/svg">
    <path d="M76.1324 19V4.45455H85.1523V6.34375H78.327V10.7756H84.506V12.6577H78.327V19H76.1324Z" fill="black"/>
    <path d="M95.3928 20.7663L98.4662 10.2991L100.436 10.8774L99.9474 12.5402L100.056 12.5722C100.413 12.0649 100.879 11.7206 101.455 11.5395C102.037 11.3551 102.635 11.353 103.248 11.5331C103.376 11.5704 103.524 11.619 103.694 11.6788C103.869 11.7399 104.004 11.7919 104.1 11.8349L103.528 13.7839C103.452 13.7371 103.314 13.6695 103.113 13.5808C102.914 13.4877 102.709 13.4104 102.501 13.3491C102.019 13.2077 101.56 13.1838 101.123 13.2775C100.691 13.368 100.314 13.5607 99.9905 13.8556C99.6684 14.1459 99.4406 14.5182 99.3072 14.9725L97.4303 21.3646L95.3928 20.7663Z" fill="black"/>
    <path d="M113.263 28.6898C112.403 28.1369 111.779 27.4572 111.391 26.6507C111.003 25.8442 110.86 24.9726 110.961 24.0357C111.062 23.0989 111.417 22.1565 112.026 21.2085C112.638 20.2565 113.351 19.5379 114.163 19.0528C114.976 18.5676 115.83 18.3339 116.724 18.3517C117.619 18.3695 118.497 18.6549 119.357 19.2078C120.217 19.7607 120.842 20.4404 121.229 21.2469C121.617 22.0534 121.759 22.927 121.656 23.8678C121.552 24.8087 121.194 25.7551 120.582 26.707C119.973 27.6551 119.263 28.3696 118.453 28.8508C117.643 29.332 116.791 29.5637 115.896 29.5459C115.001 29.5281 114.124 29.2427 113.263 28.6898ZM114.233 27.194C114.791 27.5524 115.348 27.7019 115.903 27.6427C116.459 27.5834 116.982 27.3651 117.472 26.9878C117.967 26.6131 118.403 26.131 118.782 25.5415C119.158 24.9559 119.414 24.3606 119.55 23.7555C119.692 23.1489 119.676 22.5785 119.501 22.0443C119.327 21.51 118.961 21.0637 118.403 20.7053C117.841 20.3444 117.279 20.1943 116.717 20.2549C116.159 20.3182 115.631 20.5392 115.134 20.9179C114.644 21.2952 114.211 21.7766 113.835 22.3621C113.456 22.9516 113.197 23.5477 113.057 24.1502C112.921 24.7554 112.942 25.3231 113.119 25.8533C113.3 26.3862 113.671 26.833 114.233 27.194Z" fill="black"/>
    <path d="M130.305 34.1334L125.409 38.3751L124.019 36.7703L132.263 29.6263L133.598 31.1668L132.256 32.3296L132.345 32.4315C132.945 32.2429 133.554 32.236 134.169 32.4109C134.787 32.5894 135.364 32.9882 135.901 33.6073C136.388 34.1691 136.696 34.7634 136.825 35.3903C136.959 36.0141 136.895 36.6423 136.635 37.2749C136.375 37.9074 135.905 38.5183 135.225 39.1074L129.981 43.6514L128.591 42.0465L133.642 37.67C134.239 37.1521 134.571 36.5918 134.638 35.9891C134.708 35.3832 134.507 34.8083 134.036 34.2644C133.714 33.8922 133.346 33.631 132.934 33.4807C132.525 33.3339 132.092 33.3114 131.635 33.4129C131.185 33.515 130.741 33.7552 130.305 34.1334Z" fill="black"/>
    <path d="M147.447 52.7127L145.896 53.4208L143.421 48.0004L144.971 47.2923L147.447 52.7127ZM148.013 47.6602L148.895 49.5919L139.508 53.8788C139.133 54.0499 138.877 54.2347 138.738 54.4333C138.604 54.6298 138.543 54.8321 138.555 55.0402C138.573 55.2506 138.63 55.4613 138.726 55.6723C138.797 55.8274 138.87 55.9581 138.945 56.0646C139.019 56.1711 139.078 56.2536 139.12 56.3123L137.684 57.3899C137.589 57.2976 137.474 57.1579 137.336 56.9709C137.194 56.7858 137.051 56.5392 136.905 56.231C136.664 55.7267 136.538 55.2117 136.527 54.6858C136.516 54.16 136.646 53.6709 136.919 53.2186C137.191 52.7663 137.626 52.4034 138.225 52.13L148.013 47.6602Z" fill="black"/>
    <path d="M148.81 73.5682L146.989 73.8299L146.071 67.4467L147.892 67.1849L148.81 73.5682Z" fill="black"/>
    <path d="M141.172 89.3482C141.325 88.2843 141.684 87.4007 142.249 86.6975C142.819 85.9996 143.548 85.5017 144.437 85.2039C145.331 84.9114 146.338 84.8457 147.458 85.0067C148.564 85.1658 149.509 85.5121 150.293 86.0459C151.077 86.5843 151.652 87.2601 152.018 88.0733C152.384 88.8912 152.494 89.8017 152.35 90.8046C152.262 91.4139 152.077 91.9899 151.793 92.5327C151.509 93.0755 151.119 93.5432 150.623 93.9358C150.126 94.3284 149.515 94.6064 148.788 94.7698C148.066 94.9339 147.215 94.9455 146.236 94.8047L145.49 94.6976L146.725 86.1139L148.299 86.3404L147.361 92.8642C147.914 92.9437 148.42 92.9016 148.879 92.738C149.343 92.575 149.728 92.3075 150.035 91.9355C150.341 91.5682 150.533 91.1127 150.612 90.569C150.697 89.9785 150.625 89.4421 150.398 88.9597C150.175 88.4828 149.849 88.0914 149.419 87.7857C148.993 87.4853 148.511 87.2964 147.972 87.2189L146.742 87.042C146.02 86.9383 145.388 86.9765 144.845 87.1568C144.302 87.3418 143.864 87.6448 143.531 88.0657C143.202 88.4872 142.994 89.005 142.906 89.6189C142.848 90.0173 142.852 90.3886 142.918 90.7328C142.988 91.0777 143.12 91.3862 143.316 91.6582C143.511 91.9303 143.768 92.1538 144.087 92.3289L143.443 94.2668C142.88 94.0232 142.408 93.6636 142.027 93.1878C141.649 92.7174 141.383 92.1554 141.229 91.5017C141.078 90.8534 141.059 90.1355 141.172 89.3482Z" fill="black"/>
    <path d="M143.386 106.511L137.494 103.82L138.376 101.888L148.3 106.42L147.453 108.274L145.838 107.536L145.782 107.659C146.203 108.127 146.462 108.678 146.558 109.31C146.653 109.946 146.53 110.637 146.19 111.382C145.881 112.059 145.468 112.586 144.952 112.964C144.44 113.345 143.842 113.548 143.159 113.574C142.475 113.6 141.724 113.427 140.906 113.053L134.594 110.17L135.476 108.239L141.555 111.015C142.275 111.344 142.922 111.413 143.498 111.223C144.079 111.035 144.518 110.614 144.817 109.959C145.022 109.511 145.107 109.069 145.072 108.631C145.036 108.198 144.876 107.795 144.594 107.421C144.314 107.054 143.912 106.751 143.386 106.511Z" fill="black"/>
    <path d="M127.499 119.887C128.076 119.221 128.761 118.775 129.554 118.547C130.347 118.326 131.189 118.341 132.079 118.593C132.97 118.851 133.862 119.367 134.753 120.139C135.644 120.911 136.277 121.72 136.653 122.565C137.026 123.415 137.154 124.247 137.038 125.06C136.922 125.874 136.577 126.612 136.003 127.274C135.56 127.786 135.117 128.123 134.676 128.286C134.235 128.455 133.827 128.528 133.453 128.504C133.075 128.484 132.759 128.448 132.503 128.396L132.42 128.492L136.504 132.032L135.114 133.637L124.121 124.111L125.479 122.544L126.762 123.656L126.878 123.521C126.787 123.273 126.707 122.96 126.64 122.582C126.569 122.208 126.587 121.79 126.691 121.329C126.796 120.869 127.065 120.388 127.499 119.887ZM128.561 121.427C128.161 121.889 127.945 122.384 127.912 122.914C127.88 123.45 128.011 123.989 128.305 124.532C128.596 125.078 129.031 125.603 129.611 126.105C130.183 126.601 130.756 126.953 131.328 127.161C131.9 127.368 132.444 127.416 132.959 127.306C133.475 127.195 133.936 126.905 134.342 126.436C134.761 125.953 134.984 125.442 135.013 124.903C135.041 124.364 134.91 123.825 134.62 123.285C134.327 122.749 133.908 122.245 133.364 121.774C132.813 121.296 132.246 120.949 131.663 120.732C131.081 120.515 130.521 120.456 129.984 120.555C129.448 120.661 128.974 120.951 128.561 121.427Z" fill="black"/>
    <path d="M98.807 142.013C99.3567 141.852 99.898 141.838 100.431 141.973C100.965 142.112 101.436 142.369 101.842 142.743C102.243 143.119 102.524 143.581 102.686 144.131C102.849 144.685 102.862 145.227 102.726 145.755C102.587 146.29 102.329 146.757 101.954 147.159C101.579 147.565 101.118 147.849 100.568 148.01C100.014 148.173 99.4715 148.184 98.9417 148.043C98.4087 147.909 97.9415 147.653 97.54 147.278C97.1354 146.908 96.8517 146.446 96.689 145.892C96.5276 145.342 96.5164 144.8 96.6556 144.266C96.7903 143.733 97.0447 143.263 97.419 142.857C97.7901 142.457 98.2527 142.176 98.807 142.013Z" fill="black"/>
    <path d="M67.9112 140.889L63.8133 154.845L55.0633 152.276L55.5956 150.463L62.2398 152.414L63.4884 148.162L57.3008 146.345L57.831 144.539L64.0186 146.356L65.2732 142.083L58.5472 140.108L59.0795 138.296L67.9112 140.889Z" fill="black"/>
    <path d="M45.8432 139.009L49.3451 133.56L51.1315 134.708L45.2336 143.886L43.5189 142.784L44.4788 141.29L44.3653 141.217C43.8419 141.567 43.2604 141.745 42.6209 141.751C41.9774 141.753 41.3111 141.534 40.622 141.091C39.9966 140.689 39.5334 140.205 39.2323 139.64C38.9287 139.079 38.8125 138.459 38.8838 137.779C38.9551 137.098 39.234 136.38 39.7204 135.623L43.4718 129.786L45.2583 130.934L41.6451 136.556C41.2176 137.221 41.0568 137.852 41.1627 138.45C41.266 139.051 41.6204 139.546 42.2259 139.935C42.6401 140.201 43.0662 140.348 43.504 140.376C43.9379 140.402 44.3598 140.302 44.7697 140.075C45.173 139.851 45.5309 139.495 45.8432 139.009Z" fill="black"/>
    <path d="M37.6457 118.322C38.2132 118.977 38.6156 119.615 38.8532 120.236C39.0876 120.854 39.1921 121.434 39.1668 121.976C39.1415 122.518 39.0242 123.008 38.8149 123.446L37.0507 122.559C37.1244 122.326 37.1792 122.053 37.215 121.74C37.2513 121.421 37.2111 121.067 37.0945 120.679C36.9748 120.288 36.7227 119.871 36.3382 119.427C35.8111 118.819 35.2269 118.445 34.5858 118.305C33.9482 118.162 33.3073 118.369 32.6632 118.928L31.0422 120.332L31.1306 120.434C31.3896 120.379 31.7056 120.349 32.0784 120.346C32.4482 120.339 32.8482 120.424 33.2785 120.603C33.7088 120.781 34.1425 121.123 34.5797 121.627C35.1441 122.279 35.5005 122.997 35.649 123.783C35.7909 124.569 35.6948 125.372 35.3608 126.194C35.0201 127.016 34.4114 127.807 33.5347 128.566C32.658 129.326 31.7778 129.829 30.8943 130.074C30.0076 130.316 29.1715 130.32 28.386 130.086C27.597 129.855 26.9156 129.409 26.342 128.747C25.8986 128.235 25.6264 127.747 25.5253 127.283C25.4206 126.823 25.405 126.407 25.4785 126.036C25.5489 125.662 25.6281 125.352 25.7162 125.107L25.6138 124.989L24.2773 126.147L22.9146 124.574L31.3416 117.272C32.0501 116.658 32.7743 116.319 33.514 116.254C34.2537 116.19 34.9761 116.344 35.6812 116.717C36.3832 117.086 37.038 117.621 37.6457 118.322ZM32.9416 122.427C32.5416 121.965 32.0963 121.668 31.6057 121.535C31.1083 121.403 30.5862 121.429 30.0392 121.615C29.4855 121.8 28.9242 122.139 28.3552 122.632C27.8006 123.113 27.3835 123.618 27.1038 124.149C26.8242 124.679 26.7043 125.206 26.7441 125.729C26.7803 126.255 27.0015 126.753 27.4077 127.222C27.8263 127.705 28.3003 127.999 28.8299 128.104C29.3559 128.212 29.9031 128.164 30.4715 127.959C31.0369 127.751 31.5826 127.42 32.1086 126.964C32.6489 126.496 33.0517 126.002 33.317 125.484C33.5823 124.966 33.69 124.447 33.6399 123.927C33.5868 123.402 33.354 122.902 32.9416 122.427Z" fill="black"/>
    <path d="M25.0377 107.022L15.1144 111.554L14.2322 109.623L24.1555 105.091L25.0377 107.022ZM13.1377 111.278C13.2912 111.614 13.311 111.954 13.1972 112.297C13.0771 112.638 12.8598 112.881 12.5454 113.024C12.2267 113.17 11.9013 113.175 11.5691 113.041C11.2307 112.904 10.9848 112.667 10.8314 112.331C10.6779 111.995 10.6613 111.657 10.7814 111.316C10.8952 110.972 11.1114 110.728 11.4302 110.582C11.7446 110.439 12.071 110.435 12.4094 110.572C12.7415 110.707 12.9843 110.942 13.1377 111.278Z" fill="black"/>
    <path d="M13.5976 92.5974L20.009 91.6756L20.3112 93.7775L9.51316 95.3301L9.22307 93.3124L10.9806 93.0598L10.9614 92.9262C10.3539 92.76 9.83866 92.437 9.4157 91.9573C8.99207 91.4729 8.72197 90.8253 8.60539 90.0145C8.4996 89.2787 8.56161 88.6121 8.79141 88.0146C9.01653 87.4177 9.40948 86.9235 9.97026 86.532C10.531 86.1404 11.2567 85.8806 12.1471 85.7526L19.0154 84.7651L19.3176 86.8671L12.7024 87.8182C11.9198 87.9307 11.3375 88.2225 10.9555 88.6936C10.5689 89.1653 10.4268 89.7574 10.5293 90.4698C10.5993 90.9572 10.7671 91.3755 11.0326 91.7248C11.2974 92.0695 11.6495 92.3226 12.0889 92.4842C12.523 92.6419 13.0259 92.6796 13.5976 92.5974Z" fill="black"/>
    <path d="M19.8968 71.6509C19.7439 72.7147 19.3848 73.5983 18.8197 74.3015C18.2506 74.9994 17.5213 75.4973 16.6318 75.7951C15.7382 76.0876 14.7314 76.1533 13.6113 75.9923C12.5053 75.8333 11.5601 75.4869 10.7758 74.9532C9.99215 74.4148 9.41723 73.739 9.05102 72.9257C8.68548 72.1078 8.57481 71.1974 8.71901 70.1944C8.80661 69.5851 8.99228 69.0091 9.27601 68.4663C9.55975 67.9235 9.94988 67.4558 10.4464 67.0632C10.9429 66.6706 11.5546 66.3926 12.2812 66.2292C13.0032 66.0651 13.854 66.0535 14.8335 66.1943L15.5787 66.3015L14.3445 74.8851L12.7698 74.6587L13.7078 68.1348C13.1548 68.0553 12.6488 68.0974 12.19 68.261C11.7265 68.424 11.3412 68.6915 11.0342 69.0635C10.7279 69.4309 10.5356 69.8864 10.4574 70.43C10.3725 71.0205 10.4437 71.557 10.6709 72.0393C10.8942 72.5162 11.2206 72.9076 11.6502 73.2133C12.0758 73.5137 12.5581 73.7026 13.097 73.7801L14.3273 73.957C15.049 74.0608 15.6812 74.0225 16.2237 73.8422C16.7669 73.6572 17.2051 73.3543 17.5383 72.9334C17.8668 72.5118 18.0752 71.9941 18.1634 71.3801C18.2207 70.9817 18.2167 70.6104 18.1514 70.2662C18.0814 69.9213 17.9488 69.6128 17.7535 69.3408C17.5582 69.0687 17.3009 68.8452 16.9817 68.6701L17.6263 66.7322C18.1892 66.9758 18.6613 67.3355 19.0425 67.8112C19.4198 68.2816 19.6857 68.8437 19.8405 69.4973C19.9913 70.1457 20.01 70.8635 19.8968 71.6509Z" fill="black"/>
    <path d="M24.8461 54.9246C24.3996 55.9022 23.8062 56.6489 23.0659 57.1644C22.3232 57.6737 21.4831 57.9459 20.5457 57.9811C19.606 58.01 18.6215 57.7894 17.5921 57.3193C16.5756 56.8551 15.7663 56.2565 15.1642 55.5234C14.564 54.7861 14.2027 53.9757 14.0805 53.0922C13.9602 52.2044 14.1105 51.2997 14.5314 50.378C14.7871 49.8181 15.1275 49.3177 15.5527 48.8768C15.9779 48.4359 16.484 48.0971 17.071 47.8603C17.658 47.6235 18.3232 47.529 19.0665 47.577C19.8054 47.6229 20.625 47.8515 21.5251 48.2626L22.21 48.5753L18.6075 56.4635L17.1604 55.8026L19.8984 49.8073C19.3901 49.5752 18.8928 49.4731 18.4065 49.5008C17.9158 49.5266 17.4708 49.6747 17.0714 49.9452C16.674 50.2113 16.3612 50.5942 16.1331 51.0938C15.8852 51.6365 15.8024 52.1712 15.8845 52.698C15.9643 53.2186 16.1673 53.686 16.4933 54.1004C16.8171 54.5085 17.2266 54.8257 17.7219 55.0519L18.8525 55.5682C19.5157 55.8711 20.1331 56.0125 20.7044 55.9923C21.2778 55.9678 21.7836 55.8006 22.2218 55.4907C22.6558 55.1787 23.0016 54.7407 23.2592 54.1764C23.4264 53.8103 23.5272 53.453 23.5615 53.1043C23.5915 52.7536 23.5511 52.4203 23.4404 52.1042C23.3297 51.7882 23.1458 51.5012 22.8888 51.2433L24.0533 49.5655C24.5248 49.9578 24.8764 50.4359 25.1082 50.9998C25.3376 51.5574 25.4345 52.1716 25.3988 52.8424C25.3608 53.5069 25.1766 54.201 24.8461 54.9246Z" fill="black"/>
    <path d="M32.3712 42.1682L24.1267 35.0242L25.4708 33.473L26.7805 34.6079L26.8549 34.522C26.5414 33.9872 26.422 33.4201 26.4966 32.8206C26.5707 32.2145 26.8171 31.6699 27.2357 31.1868C27.3225 31.0866 27.4284 30.9716 27.5534 30.8419C27.6815 30.7085 27.785 30.6071 27.8639 30.5377L29.3991 31.8679C29.3254 31.9168 29.2065 32.0142 29.0424 32.1602C28.8747 32.3031 28.7195 32.4569 28.5769 32.6215C28.2482 33.0008 28.0357 33.4087 27.9394 33.8453C27.8426 34.2751 27.8611 34.6984 27.995 35.1151C28.1252 35.5287 28.3693 35.8906 28.7271 36.2006L33.7619 40.5633L32.3712 42.1682Z" fill="black"/>
    <path d="M53.7187 25.273C53.169 25.4344 52.6276 25.4478 52.0946 25.3132C51.5602 25.174 51.0901 24.9173 50.6841 24.543C50.2827 24.1674 50.0012 23.7047 49.8398 23.155C49.6771 22.6008 49.6637 22.0594 49.7997 21.531C49.9389 20.9966 50.1963 20.5287 50.5719 20.1273C50.9461 19.7213 51.4081 19.4376 51.9578 19.2762C52.5121 19.1135 53.0541 19.1024 53.5839 19.2429C54.1169 19.3775 54.5841 19.6326 54.9856 20.0082C55.3902 20.378 55.6739 20.84 55.8367 21.3942C55.9981 21.9439 56.0092 22.4859 55.87 23.0203C55.7354 23.5533 55.4809 24.0228 55.1066 24.4288C54.7356 24.8289 54.2729 25.1103 53.7187 25.273Z" fill="black"/>
</svg>
